<?xml version="1.0" encoding="utf-8"?>
<!-- Generator: Adobe Illustrator 23.1.1, SVG Export Plug-In . SVG Version: 6.00 Build 0)  -->
<svg version="1.1" id="Layer_1" xmlns="http://www.w3.org/2000/svg" xmlns:xlink="http://www.w3.org/1999/xlink" x="0px" y="0px"
	 viewBox="0 0 512 512" style="enable-background:new 0 0 512 512;" xml:space="preserve">
<style type="text/css">
	.st0{fill:#E9573F;}
	.st1{fill:#FC6E51;}
</style>
<g>
	<path class="st0" d="M103.1,496.7c-11,0-24.5-5.9-36.2-15.8c-9.5-8.1-16.9-18.2-20.1-27.6c-2.6-7.6-2.3-14,0.8-17.7
		c2.9-3.4,8-4.2,11.7-4.2c11,0,24.5,5.9,36.2,15.8c9.5,8.1,16.9,18.2,20.1,27.6c2.6,7.6,2.3,14-0.8,17.7
		C111.9,495.9,106.8,496.7,103.1,496.7z"/>
	<path class="st0" d="M493.3,258.3c-9.3,0-29.6-18.4-43.7-53c-7.1-17.4-11-35.4-10.8-49.5c0.2-12,3.3-18.6,6.3-19.8
		c0.5-0.2,1-0.3,1.7-0.3c9.2,0,29.6,18.4,43.7,53c7.1,17.4,11,35.4,10.8,49.5c-0.2,12-3.3,18.6-6.3,19.8
		C494.5,258.3,494,258.3,493.3,258.3z"/>
	<path class="st0" d="M104.5,69.3c-10.3,0-17.9-3.1-20.3-8.3c-2-4.3-0.6-10.6,3.9-17.3c5.6-8.3,15.3-16.1,26.6-21.4
		c9.6-4.5,19.9-7,28.9-7c10.3,0,17.9,3.1,20.3,8.3c2,4.3,0.6,10.6-3.9,17.3c-5.6,8.3-15.3,16.1-26.6,21.4
		C123.8,66.8,113.5,69.3,104.5,69.3z"/>
</g>
<path class="st1" d="M500.4,184.7c-14.3-35-36.9-59.6-53.6-59.6c-2,0-3.9,0.3-5.7,1.1L416.5,137c-25.9-36.1-62-64.5-104.1-80.7
	c0.2-0.7,0.2-1.5,0.2-2.3c0-5.9-4.8-10.7-10.7-10.7c-4.3,0-8,2.5-9.7,6.2c-19.9-5.6-40.9-8.7-62.6-8.7c-15,0-29.7,1.5-44,4.2
	l-12.2-26c-4.4-9.5-15.9-14.5-30-14.5c-10.2,0-21.9,2.6-33.4,8C82.8,25.5,66.8,49.1,74.5,65.5l12,25.5C68.6,105.3,53,122.1,40,141
	c-2-2.2-4.8-3.7-8-3.7c-5.9,0-10.7,4.8-10.7,10.7c0,4.9,3.4,9.1,7.9,10.3C10.6,191.5,0,229.8,0,270.6c0,17.3,1.9,34.1,5.5,50.3
	c-3.3,1.8-5.5,5.3-5.5,9.4c0,5.9,4.8,10.7,10.7,10.7c0.1,0,0.2,0,0.3,0c8.8,27.3,22.5,52.3,40.1,74.1l-11.5,13.6
	C27.8,442.4,37,469.4,60,489c14.1,12,30.1,18.3,43.1,18.3c8.2,0,15.3-2.6,19.8-7.9l15.3-18.1c28,12.2,58.9,18.9,91.4,18.9
	c33.6,0,65.5-7.2,94.3-20.2c1.5,4,5.4,6.9,10,6.9c5.9,0,10.7-4.8,10.7-10.7c0-2.2-0.7-4.2-1.8-5.9c35-19.9,64.2-48.7,84.7-83.3
	c1.6,0.9,3.4,1.5,5.4,1.5c5.9,0,10.7-4.8,10.7-10.7c0-4.3-2.5-7.9-6.1-9.6c12-25.5,19.5-53.6,21.3-83.3l40.2-17.1
	C515.8,261.1,516.4,223.8,500.4,184.7z M103.1,486c-6.3,0-17.7-3.5-29.3-13.3c-7.3-6.2-13-13.5-16-20.6c-2.2-5.2-2.2-8.5-2-9.6
	c0.5-0.2,1.5-0.5,3.5-0.5c6.3,0,17.7,3.5,29.3,13.3c7.3,6.2,13,13.5,16,20.6c2.2,5.2,2.2,8.5,2,9.6C106.1,485.7,105,486,103.1,486z
	 M149.7,37c-4.8,6.1-12.2,11.6-20.9,15.7c-8.2,3.9-16.9,6-24.4,6c-6.4,0-9.6-1.5-10.6-2.2c0.1-1.1,0.9-4.3,4.4-8.8
	c4.8-6.1,12.2-11.6,20.9-15.7c8.2-3.9,16.9-6,24.4-6c6.4,0,9.6,1.5,10.6,2.2C154,29.3,153.2,32.5,149.7,37z M489.9,245.7
	c-2.5-1.7-6-4.7-10.1-9.5c-7.6-9-14.8-21.3-20.3-34.8c-5.5-13.5-9-27.4-9.8-39.1c-0.4-6.3,0-10.9,0.6-13.8c2.5,1.7,6,4.7,10.1,9.5
	c7.6,9,14.8,21.3,20.3,34.8c5.5,13.5,9,27.4,9.8,39.1C490.9,238.1,490.5,242.7,489.9,245.7z"/>
<g>
	<path class="st0" d="M319.3,156c-2.6,20.6-28.5,34.2-57.7,30.4c-29.2-3.8-50.7-23.5-48.1-44c2.6-20.5,28.5-34.2,57.7-30.4
		C300.4,115.7,322,135.4,319.3,156z"/>
	<path class="st0" d="M356.4,328.1c10.9,17.1,3.5,41.4-16.6,54.2c-20.1,12.9-45.3,9.4-56.2-7.7c-10.9-17.1-3.5-41.4,16.6-54.2
		C320.3,307.5,345.5,311,356.4,328.1z"/>
	<path class="st0" d="M228.5,282c0,35.3-33.4,64-74.7,64c-41.2,0-74.7-28.6-74.7-64s33.4-64,74.7-64
		C195.1,218,228.5,246.6,228.5,282z"/>
</g>
</svg>
